<svg version="1.1" id="Layer_1" xmlns="http://www.w3.org/2000/svg" xmlns:xlink="http://www.w3.org/1999/xlink" x="0px" y="0px"
	 width="100%" viewBox="0 0 585 226" enable-background="new 0 0 585 226" xml:space="preserve">
<path fill="#FEFEFE" opacity="1.000000" stroke="none" 
	d="
M508.000000,227.000000 
	C339.059570,227.000000 170.119125,227.000000 1.089344,227.000000 
	C1.089344,151.752869 1.089344,76.505608 1.089344,1.000000 
	C163.356567,1.000000 325.713287,1.000000 488.685852,1.346205 
	C474.190033,30.035524 476.135559,57.588436 493.387054,84.278664 
	C495.327118,87.280174 496.094971,89.805435 495.484131,93.437401 
	C490.761871,121.514839 497.344086,146.530487 516.380310,168.008362 
	C517.497925,169.269318 518.491150,170.640549 519.995361,172.529434 
	C487.189240,180.258133 460.384125,171.673767 438.379150,147.187256 
	C437.893036,147.474747 437.406921,147.762238 436.920837,148.049713 
	C437.321228,153.032043 437.721588,158.014374 438.079102,163.408676 
	C443.147522,195.475037 468.045715,220.280701 499.592010,225.208786 
	C502.418976,225.650391 505.198456,226.395721 508.000000,227.000000 
M454.529114,77.147346 
	C454.683624,77.078667 454.838104,77.009987 455.472504,77.131584 
	C455.643616,77.149651 455.814758,77.167717 456.179077,77.557449 
	C456.361694,77.789970 456.599731,77.924271 456.861115,78.661949 
	C455.966553,80.471138 455.071991,82.280327 453.235016,84.170097 
	C452.931763,84.256332 452.628540,84.342575 452.329559,83.674469 
	C452.109497,82.933083 451.889435,82.191689 451.669373,81.450302 
	C451.433411,81.499779 451.197449,81.549263 450.961487,81.598740 
	C450.660461,87.731995 450.359406,93.865242 449.836914,100.777969 
	C449.757416,102.125343 449.677887,103.472717 449.045654,105.467133 
	C449.072662,109.310341 449.099701,113.153542 448.947510,117.655571 
	C448.996094,118.104485 449.044647,118.553391 448.903961,119.921867 
	C448.732330,124.706360 448.564880,129.490997 448.388306,134.275314 
	C447.900360,147.495438 447.898895,147.495270 460.839417,147.237350 
	C461.994873,147.214325 463.151794,147.147141 464.305634,147.181198 
	C467.348267,147.271057 468.030884,145.701859 467.615936,142.393890 
	C467.500305,139.900635 467.384674,137.407379 467.390991,134.157425 
	C467.239929,133.442078 467.088898,132.726730 467.212982,131.238724 
	C466.797913,130.131561 466.382843,129.024384 466.712708,127.918365 
	C466.790039,126.943596 466.867340,125.968819 466.746948,124.298531 
	C467.023193,121.860809 467.299408,119.423088 467.796326,116.166458 
	C467.872986,111.444069 467.949677,106.721687 468.270721,101.511299 
	C468.205109,101.341606 468.139526,101.171913 468.385223,100.237381 
	C468.930817,92.938751 469.413788,85.634644 470.052826,78.344200 
	C470.308136,75.431503 469.533264,73.901657 466.292145,74.128021 
	C462.310913,74.406082 458.299896,74.318184 454.334778,74.716904 
	C453.477203,74.803139 452.760162,76.287117 452.052887,77.778259 
	C452.399475,78.352196 452.746063,78.926125 453.092621,79.500038 
	C453.402374,78.714920 453.712158,77.929802 454.529114,77.147346 
M165.389282,116.350723 
	C165.558868,114.895012 165.728455,113.439308 166.072479,111.174873 
	C165.188995,103.151176 165.568069,94.722382 163.151459,87.190582 
	C158.538498,72.813324 140.210327,68.640327 129.406235,79.219276 
	C125.405731,83.136421 121.970695,88.458275 120.346092,93.771873 
	C118.161018,100.918640 118.295715,108.739761 116.843803,116.155746 
	C115.490891,123.066040 116.876350,129.352112 119.778275,135.445099 
	C122.968414,142.143265 128.206635,146.310165 135.716675,147.254395 
	C147.831345,148.777573 157.740067,142.068344 162.771194,128.863876 
	C163.543747,125.248497 164.316315,121.633118 165.296432,117.510612 
	C165.218048,117.345634 165.139679,117.180656 165.389282,116.350723 
M219.477722,116.395012 
	C219.619019,115.258209 219.760315,114.121414 220.117966,112.181572 
	C219.389389,104.124123 219.949402,95.678703 217.664505,88.089844 
	C212.881500,72.204102 193.026459,68.163719 182.075409,80.661583 
	C178.058243,85.246170 174.882233,91.269325 173.355957,97.162865 
	C171.306320,105.077232 170.258316,113.546097 170.627335,121.693260 
	C170.896088,127.626724 172.726990,134.569992 176.342667,139.069031 
	C187.263443,152.658020 205.242477,149.920319 214.627594,133.762253 
	C215.103317,132.510025 215.579025,131.257797 216.559052,129.445160 
	C217.202713,126.980156 217.846359,124.515160 218.712631,121.556358 
	C218.780060,121.033081 218.847504,120.509811 219.187790,119.268913 
	C219.182144,118.522156 219.176498,117.775398 219.477722,116.395012 
M260.106049,93.524910 
	C259.969238,96.459625 259.832428,99.394333 259.695618,102.329048 
	C256.029907,95.826447 253.643082,89.282265 250.984589,82.850388 
	C248.460892,76.744644 245.604416,75.045303 239.063583,75.205444 
	C237.064438,75.254387 235.064331,75.448273 233.068512,75.403839 
	C230.267715,75.341484 228.940598,76.283417 228.741653,79.395447 
	C227.381119,100.678360 225.875763,121.952415 224.308029,143.221283 
	C224.058380,146.608368 225.399246,147.713120 228.593384,147.561981 
	C231.919205,147.404617 235.266006,147.384796 238.589371,147.566147 
	C241.919907,147.747910 242.976700,146.274139 242.898849,143.111130 
	C242.780014,138.282837 242.998810,133.447021 243.025040,128.614120 
	C243.055298,123.039772 243.032074,117.465111 243.032074,111.890587 
	C243.607651,111.873390 244.183228,111.856194 244.758820,111.838997 
	C246.267014,115.833229 247.768066,119.830177 249.285416,123.820923 
	C250.803085,127.812469 252.358307,131.789841 253.859802,135.787415 
	C258.165314,147.250488 258.157898,147.075333 270.396027,147.074860 
	C274.605865,147.074707 275.695221,145.678345 275.751862,141.606354 
	C276.003479,123.518936 276.439270,105.430374 277.118317,87.353874 
	C277.585815,74.909416 277.812805,74.918015 265.185699,75.189857 
	C265.019226,75.193443 264.785522,75.110825 264.695953,75.192345 
	C263.463440,76.313820 261.384460,77.326248 261.189301,78.618568 
	C260.495148,83.214775 260.444153,87.908134 260.106049,93.524910 
M392.209412,146.424637 
	C396.352844,146.561371 400.498901,146.645889 404.638763,146.853912 
	C407.221069,146.983704 408.204437,145.880737 408.162201,143.320160 
	C408.093506,139.156860 408.581085,134.962021 408.230988,130.831589 
	C407.821228,125.996826 409.808319,124.194374 414.922729,124.583542 
	C418.206299,130.854782 421.846710,137.199997 424.876129,143.824631 
	C426.650818,147.705475 428.423248,147.991730 431.568542,145.579620 
	C433.938141,143.762375 436.501434,142.174713 439.082916,140.663254 
	C441.565918,139.209442 442.066833,137.706360 440.530579,135.041702 
	C437.234161,129.324020 434.287903,123.404472 431.955872,118.998878 
	C435.476776,113.055138 438.916290,108.293251 441.284973,103.047806 
	C447.560638,89.150528 438.578156,75.054977 423.422333,75.207603 
	C415.630463,75.286079 407.862305,76.791519 400.061981,77.354263 
	C396.185974,77.633888 395.203705,79.434059 395.014008,83.069359 
	C394.276154,97.210190 393.146027,111.330040 392.294220,125.465668 
	C391.885651,132.246002 391.772552,139.044128 392.209412,146.424637 
M300.595367,98.194427 
	C300.826630,94.873367 301.006195,91.547760 301.298279,88.232056 
	C302.447144,75.191338 302.462250,75.266960 289.217377,75.613739 
	C286.367828,75.688339 285.002563,76.391914 284.831116,79.491920 
	C284.565125,84.301155 283.601044,89.073563 283.369781,93.882591 
	C282.771454,106.323624 281.880798,118.787086 282.137024,131.220367 
	C282.318665,140.033722 287.035919,145.376083 294.453247,146.671356 
	C312.476959,149.818832 328.780487,144.448425 330.972076,120.847771 
	C331.970428,110.096733 331.846802,99.242096 332.251343,88.435165 
	C332.752930,75.034813 332.764618,75.117683 319.453125,75.607780 
	C316.691010,75.709480 315.584961,76.558395 315.524048,79.324310 
	C315.410522,84.481270 315.126984,89.637169 314.798737,94.786140 
	C314.216522,103.919434 313.788910,113.072777 312.824921,122.167725 
	C312.250397,127.588188 308.649445,130.472366 304.163361,129.883759 
	C299.165710,129.228058 298.968842,125.209953 299.097198,121.539421 
	C299.358826,114.058693 299.996124,106.591095 300.595367,98.194427 
M95.775124,114.279800 
	C97.153503,112.201195 98.533592,110.123718 99.909943,108.043770 
	C103.396599,102.774704 107.105965,97.637184 110.317368,92.205322 
	C115.849426,82.848213 111.591248,75.134270 100.853935,74.692802 
	C99.196091,74.624649 97.510216,74.641335 95.869286,74.859428 
	C87.458748,75.977272 79.072128,77.286957 70.648560,78.289375 
	C67.093651,78.712410 65.802788,80.290657 66.073685,83.821266 
	C66.314713,86.962494 66.225296,90.159927 65.945541,93.302628 
	C65.576286,97.450745 66.947899,98.673225 71.100395,97.575775 
	C75.888184,96.310440 80.829926,95.627625 85.704811,94.691833 
	C84.978302,97.870544 83.669380,99.740143 82.427658,101.653351 
	C76.730484,110.431496 70.306602,118.840134 65.561737,128.107498 
	C60.033230,138.905426 64.800491,146.753586 76.950279,147.106201 
	C84.991936,147.339569 93.158882,145.908066 101.148666,144.523376 
	C108.981827,143.165833 108.915916,142.777863 109.093979,134.619354 
	C109.137581,132.621735 109.186218,130.624008 109.203217,128.626083 
	C109.247414,123.432022 108.898582,123.309593 103.763870,124.769592 
	C98.343513,126.310814 92.832123,127.531876 87.360497,128.892807 
	C87.197067,128.481018 87.033638,128.069229 86.870216,127.657440 
	C89.689713,123.387825 92.509216,119.118210 95.775124,114.279800 
M352.095337,119.495499 
	C351.879486,127.476440 351.546295,135.457626 351.562531,143.438110 
	C351.565247,144.779739 353.006287,147.213074 353.907501,147.273224 
	C358.369171,147.570984 362.882233,147.364944 367.352875,147.020874 
	C368.172394,146.957779 369.496460,145.466156 369.541290,144.580963 
	C369.910187,137.293625 369.982605,129.992065 370.240540,122.698181 
	C370.603210,112.442734 371.047913,102.190186 371.467743,91.680145 
	C373.341827,91.539612 374.973175,91.374367 376.608582,91.301552 
	C387.897858,90.798958 387.777863,90.803650 387.918518,79.471024 
	C387.961792,75.985954 386.923035,74.760963 383.376495,74.890228 
	C372.739594,75.277954 362.091553,75.348007 351.449799,75.617920 
	C335.759033,76.015900 335.834747,76.043243 335.948212,91.936264 
	C335.973358,95.457115 337.171570,96.293350 340.471710,95.500175 
	C344.437653,94.546982 348.499115,93.991272 352.123138,93.335167 
	C352.123138,101.918259 352.123138,110.207436 352.095337,119.495499 
z"/>
<path fill="#1B152E" opacity="1.000000" stroke="none" 
	d="
M438.121979,162.996704 
	C437.721588,158.014374 437.321228,153.032043 436.920837,148.049713 
	C437.406921,147.762238 437.893036,147.474747 438.379150,147.187256 
	C460.384125,171.673767 487.189240,180.258133 519.995361,172.529434 
	C518.491150,170.640549 517.497925,169.269318 516.380310,168.008362 
	C497.344086,146.530487 490.761871,121.514839 495.484131,93.437401 
	C496.094971,89.805435 495.327118,87.280174 493.387054,84.278664 
	C476.135559,57.588436 474.190033,30.035524 489.150879,1.346205 
	C489.444458,1.000000 489.888885,1.000000 490.791199,1.325377 
	C497.005951,5.788794 503.703217,9.099546 508.267151,14.287169 
	C513.277649,19.982410 517.937500,23.042967 525.776245,22.092230 
	C529.415039,21.650888 531.630798,20.920956 533.947815,18.112339 
	C537.190552,14.181628 541.032288,10.694176 544.907349,7.353000 
	C547.693115,4.951049 550.952087,3.097947 554.000000,1.000003 
	C554.444458,1.000000 554.888916,1.000000 555.725708,1.344930 
	C566.816040,20.085506 569.000244,39.772972 563.271484,59.940105 
	C560.509155,69.664474 555.354553,78.709259 551.127747,88.418770 
	C551.113892,88.406868 551.695679,88.998024 552.364685,89.463921 
	C570.470703,102.072128 581.805969,118.972694 585.119324,140.988983 
	C585.175415,141.361725 585.696106,141.664551 586.000000,142.000000 
	C586.000000,143.066666 586.000000,144.133347 585.664368,145.850220 
	C585.552490,150.666946 585.776245,154.833466 586.000000,159.000000 
	C586.000000,160.066666 586.000000,161.133347 585.635620,162.738434 
	C583.843872,168.384521 583.110352,173.830948 580.821716,178.517975 
	C577.638977,185.035873 573.290710,190.984665 568.995239,197.049438 
	C569.256714,195.052200 569.964233,193.182602 571.195557,189.928955 
	C552.030212,202.117676 532.364990,206.344467 510.841278,202.385529 
	C501.074463,198.448471 491.633484,194.678177 481.977386,190.637665 
	C475.861633,184.904007 469.960999,179.440567 463.952087,173.655609 
	C456.180542,166.838623 448.517273,160.343185 440.103607,153.211700 
	C440.103607,157.210190 440.103607,160.094177 439.773407,162.986282 
	C439.002808,162.995163 438.562378,162.995926 438.121979,162.996704 
M502.982239,141.853027 
	C508.061035,149.946930 513.127686,158.048462 518.223267,166.131790 
	C521.231812,170.904465 524.916565,171.445374 529.840820,168.634781 
	C534.010742,166.254745 538.575073,164.630951 539.036987,160.369873 
	C530.264038,153.105301 522.281250,146.495026 513.999451,139.260925 
	C505.764587,129.402130 500.407623,118.083725 497.232941,105.616203 
	C496.266754,118.012802 497.701782,129.891769 502.982239,141.853027 
M568.095703,129.338455 
	C569.171326,126.375549 570.529724,123.477936 571.233765,120.429230 
	C571.805664,117.952583 572.667908,114.622292 571.547180,112.829742 
	C565.692932,103.465759 558.020630,95.793594 548.504639,90.491570 
	C544.103943,92.811142 543.440918,95.581863 545.248718,99.733673 
	C549.433044,109.343109 550.528442,119.583893 550.187256,130.848373 
	C548.160950,140.611267 546.134644,150.374176 544.142883,159.970459 
	C554.252869,152.218109 562.551392,142.371826 568.095703,129.338455 
M547.664978,128.410568 
	C547.297546,117.838310 546.364258,107.397110 541.145142,97.714531 
	C536.853394,100.761475 532.894348,103.242714 529.320801,106.191216 
	C524.669373,110.029182 520.468933,109.745117 515.949951,106.031448 
	C510.756958,101.763947 505.365631,97.737778 499.421509,93.109222 
	C499.611572,107.102875 503.376953,119.190521 511.118042,130.777588 
	C518.898560,141.553482 528.099365,150.609421 541.016602,155.951645 
	C545.475098,147.212051 547.182617,138.356384 547.664978,128.410568 
M552.130859,156.882172 
	C540.417847,167.414948 527.035095,174.566299 511.338867,177.043259 
	C507.545715,177.641815 503.758118,178.275497 499.141205,178.980423 
	C497.759338,179.040558 496.377441,179.100677 494.247742,178.776382 
	C485.323364,176.981613 476.398956,175.186859 466.251251,173.146072 
	C470.226440,176.610779 473.416260,179.390961 476.968567,182.763397 
	C495.910919,199.027557 517.826233,204.020386 542.018555,199.389297 
	C554.913757,196.920776 566.523865,191.489960 576.508606,181.558655 
	C578.579712,174.069427 580.650818,166.580200 582.889099,158.293915 
	C583.184937,139.274246 580.362122,125.831894 575.227722,120.410027 
	C571.546753,127.752426 568.203735,135.508392 563.880798,142.673157 
	C560.846191,147.702637 556.476379,151.926468 552.130859,156.882172 
M506.146851,68.962975 
	C511.804596,75.952805 517.462341,82.942635 522.970032,89.747124 
	C527.906738,83.300415 533.097534,76.521805 538.882385,69.364243 
	C546.350647,63.606236 553.818909,57.848232 561.404663,51.999687 
	C556.506775,35.801155 539.875427,24.096556 521.955200,24.536549 
	C504.108521,24.974737 488.051300,36.872875 484.287994,52.156570 
	C491.547455,57.630772 498.686768,63.014374 506.146851,68.962975 
M527.103943,89.656624 
	C525.803406,91.850174 524.502930,94.043724 522.614746,97.228455 
	C513.821960,79.420708 502.136353,65.807312 484.748779,56.704098 
	C484.914185,58.689304 484.791443,60.042278 485.162079,61.242950 
	C491.126282,80.564438 502.897064,95.306999 520.475464,105.272133 
	C521.793945,106.019577 524.405884,105.688629 525.833374,104.857491 
	C543.143066,94.779411 554.654663,80.039894 560.470764,60.876060 
	C560.807495,59.766376 560.757996,58.539429 560.959656,56.723591 
	C546.202576,64.590744 535.308167,75.226357 527.103943,89.656624 
M554.369995,35.111435 
	C557.082214,38.609734 559.794434,42.108032 562.530273,45.636806 
	C565.621582,36.269310 560.940796,12.621361 554.224609,6.224015 
	C552.701599,10.373104 550.924377,14.101667 549.985718,18.030569 
	C548.545044,24.060791 547.404480,30.294867 554.369995,35.111435 
M495.207642,26.197376 
	C495.715820,19.092213 494.714874,12.336028 490.732422,6.146742 
	C484.080566,14.139817 479.605194,38.262161 483.210754,45.286259 
	C486.019775,41.757561 489.082428,38.278172 491.694580,34.488312 
	C493.216461,32.280251 494.016907,29.574930 495.207642,26.197376 
M498.020081,23.411514 
	C498.106293,24.955498 498.192474,26.499481 498.307892,28.566858 
	C503.057068,26.450174 507.190399,24.607965 511.704224,22.596170 
	C507.337677,16.054007 502.500885,10.930390 495.427673,7.267278 
	C496.433167,13.175359 497.226715,17.837780 498.020081,23.411514 
M540.249573,25.402634 
	C541.993469,26.133869 543.737366,26.865103 545.455566,27.585590 
	C546.963745,20.589464 548.332825,14.238744 549.701843,7.888022 
	C549.383484,7.628218 549.065125,7.368414 548.746704,7.108610 
	C543.693298,11.986193 538.639893,16.863775 532.904114,22.400021 
	C535.927185,23.623863 537.733704,24.355217 540.249573,25.402634 
z"/>
<path fill="#FDFDFD" opacity="1.000000" stroke="none" 
	d="
M586.000000,141.531342 
	C585.696106,141.664551 585.175415,141.361725 585.119324,140.988983 
	C581.805969,118.972694 570.470703,102.072128 552.364685,89.463921 
	C551.695679,88.998024 551.113892,88.406868 551.127747,88.418770 
	C555.354553,78.709259 560.509155,69.664474 563.271484,59.940105 
	C569.000244,39.772972 566.816040,20.085506 556.059021,1.344930 
	C565.974365,1.000000 575.948669,1.000000 586.000000,1.000000 
	C586.000000,47.687534 586.000000,94.375107 586.000000,141.531342 
z"/>
<path fill="#FCFDFD" opacity="1.000000" stroke="none" 
	d="
M569.441406,197.177078 
	C573.290710,190.984665 577.638977,185.035873 580.821716,178.517975 
	C583.110352,173.830948 583.843872,168.384521 585.635620,163.138428 
	C586.000000,184.263443 586.000000,205.526901 586.000000,227.000000 
	C562.979553,227.000000 539.958435,227.000000 516.626953,226.617432 
	C522.564941,224.875565 528.813293,223.516296 535.341187,222.177155 
	C536.133057,221.994308 536.645325,221.791336 537.503174,221.520996 
	C538.898499,220.967041 539.948242,220.480484 541.356934,219.971695 
	C550.737610,215.821503 558.799988,210.332001 565.374634,202.855652 
	C566.126465,202.000671 565.946716,200.326477 566.114258,199.028778 
	C566.029602,199.025436 566.034912,199.194794 566.328979,199.613327 
	C567.456238,199.093292 568.289368,198.154724 569.207275,197.247498 
	C569.292053,197.278824 569.441406,197.177078 569.441406,197.177078 
z"/>
<path fill="#FCFCFC" opacity="1.000000" stroke="none" 
	d="
M553.531372,1.000003 
	C550.952087,3.097947 547.693115,4.951049 544.907349,7.353000 
	C541.032288,10.694176 537.190552,14.181628 533.947815,18.112339 
	C531.630798,20.920956 529.415039,21.650888 525.776245,22.092230 
	C517.937500,23.042967 513.277649,19.982410 508.267151,14.287169 
	C503.703217,9.099546 497.005951,5.788794 491.124512,1.325377 
	C511.687561,1.000000 532.375122,1.000000 553.531372,1.000003 
z"/>
<path fill="#1C1832" opacity="1.000000" stroke="none" 
	d="
M535.061584,222.157013 
	C528.813293,223.516296 522.564941,224.875565 516.158325,226.617432 
	C513.629456,227.000000 511.258881,227.000000 508.444153,227.000000 
	C505.198456,226.395721 502.418976,225.650391 499.592010,225.208786 
	C468.045715,220.280701 443.147522,195.475037 438.079102,163.408676 
	C438.562378,162.995926 439.002808,162.995163 439.949036,163.313782 
	C441.661774,167.755081 442.868622,171.876984 444.092957,176.360580 
	C447.072876,182.148178 450.035278,187.574081 453.088226,193.325531 
	C457.026123,197.798813 460.873474,201.946548 464.897888,206.390884 
	C473.384552,213.875626 482.980347,218.438782 493.585419,221.223938 
	C506.941620,224.731628 520.149109,223.992889 533.708496,220.869904 
	C534.386841,221.417175 534.724243,221.787094 535.061584,222.157013 
z"/>
<path fill="#666677" opacity="1.000000" stroke="none" 
	d="
M586.000000,158.536819 
	C585.776245,154.833466 585.552490,150.666946 585.664368,146.250214 
	C586.000000,150.024551 586.000000,154.049088 586.000000,158.536819 
z"/>
<path fill="#060606" opacity="1.000000" stroke="none" 
	d="
M260.127838,93.044800 
	C260.444153,87.908134 260.495148,83.214775 261.189301,78.618568 
	C261.384460,77.326248 263.463440,76.313820 264.695953,75.192345 
	C264.785522,75.110825 265.019226,75.193443 265.185699,75.189857 
	C277.812805,74.918015 277.585815,74.909416 277.118317,87.353874 
	C276.439270,105.430374 276.003479,123.518936 275.751862,141.606354 
	C275.695221,145.678345 274.605865,147.074707 270.396027,147.074860 
	C258.157898,147.075333 258.165314,147.250488 253.859802,135.787415 
	C252.358307,131.789841 250.803085,127.812469 249.285416,123.820923 
	C247.768066,119.830177 246.267014,115.833229 244.758820,111.838997 
	C244.183228,111.856194 243.607651,111.873390 243.032074,111.890587 
	C243.032074,117.465111 243.055298,123.039772 243.025040,128.614120 
	C242.998810,133.447021 242.780014,138.282837 242.898849,143.111130 
	C242.976700,146.274139 241.919907,147.747910 238.589371,147.566147 
	C235.266006,147.384796 231.919205,147.404617 228.593384,147.561981 
	C225.399246,147.713120 224.058380,146.608368 224.308029,143.221283 
	C225.875763,121.952415 227.381119,100.678360 228.741653,79.395447 
	C228.940598,76.283417 230.267715,75.341484 233.068512,75.403839 
	C235.064331,75.448273 237.064438,75.254387 239.063583,75.205444 
	C245.604416,75.045303 248.460892,76.744644 250.984589,82.850388 
	C253.643082,89.282265 256.029907,95.826447 259.695618,102.329048 
	C259.832428,99.394333 259.969238,96.459625 260.127838,93.044800 
z"/>
<path fill="#060606" opacity="1.000000" stroke="none" 
	d="
M391.867554,146.129425 
	C391.772552,139.044128 391.885651,132.246002 392.294220,125.465668 
	C393.146027,111.330040 394.276154,97.210190 395.014008,83.069359 
	C395.203705,79.434059 396.185974,77.633888 400.061981,77.354263 
	C407.862305,76.791519 415.630463,75.286079 423.422333,75.207603 
	C438.578156,75.054977 447.560638,89.150528 441.284973,103.047806 
	C438.916290,108.293251 435.476776,113.055138 431.955872,118.998878 
	C434.287903,123.404472 437.234161,129.324020 440.530579,135.041702 
	C442.066833,137.706360 441.565918,139.209442 439.082916,140.663254 
	C436.501434,142.174713 433.938141,143.762375 431.568542,145.579620 
	C428.423248,147.991730 426.650818,147.705475 424.876129,143.824631 
	C421.846710,137.199997 418.206299,130.854782 414.922729,124.583542 
	C409.808319,124.194374 407.821228,125.996826 408.230988,130.831589 
	C408.581085,134.962021 408.093506,139.156860 408.162201,143.320160 
	C408.204437,145.880737 407.221069,146.983704 404.638763,146.853912 
	C400.498901,146.645889 396.352844,146.561371 391.867554,146.129425 
M424.121948,99.235703 
	C426.228668,93.368958 425.582855,91.228889 421.602173,90.885887 
	C414.002258,90.231033 410.829559,92.789268 410.151428,100.163986 
	C409.927704,102.597061 409.783203,105.037422 409.577362,107.813301 
	C415.610779,106.971504 420.876740,105.606461 424.121948,99.235703 
z"/>
<path fill="#060606" opacity="1.000000" stroke="none" 
	d="
M300.537018,98.656258 
	C299.996124,106.591095 299.358826,114.058693 299.097198,121.539421 
	C298.968842,125.209953 299.165710,129.228058 304.163361,129.883759 
	C308.649445,130.472366 312.250397,127.588188 312.824921,122.167725 
	C313.788910,113.072777 314.216522,103.919434 314.798737,94.786140 
	C315.126984,89.637169 315.410522,84.481270 315.524048,79.324310 
	C315.584961,76.558395 316.691010,75.709480 319.453125,75.607780 
	C332.764618,75.117683 332.752930,75.034813 332.251343,88.435165 
	C331.846802,99.242096 331.970428,110.096733 330.972076,120.847771 
	C328.780487,144.448425 312.476959,149.818832 294.453247,146.671356 
	C287.035919,145.376083 282.318665,140.033722 282.137024,131.220367 
	C281.880798,118.787086 282.771454,106.323624 283.369781,93.882591 
	C283.601044,89.073563 284.565125,84.301155 284.831116,79.491920 
	C285.002563,76.391914 286.367828,75.688339 289.217377,75.613739 
	C302.462250,75.266960 302.447144,75.191338 301.298279,88.232056 
	C301.006195,91.547760 300.826630,94.873367 300.537018,98.656258 
z"/>
<path fill="#070707" opacity="1.000000" stroke="none" 
	d="
M218.490021,122.050171 
	C217.846359,124.515160 217.202713,126.980156 215.938446,129.732529 
	C211.559494,130.401031 213.542923,132.498611 214.079147,134.163574 
	C205.242477,149.920319 187.263443,152.658020 176.342667,139.069031 
	C172.726990,134.569992 170.896088,127.626724 170.627335,121.693260 
	C170.258316,113.546097 171.306320,105.077232 173.355957,97.162865 
	C174.882233,91.269325 178.058243,85.246170 182.075409,80.661583 
	C193.026459,68.163719 212.881500,72.204102 217.664505,88.089844 
	C219.949402,95.678703 219.389389,104.124123 219.604446,112.596489 
	C216.922546,111.786827 214.754181,110.562248 212.923965,109.528641 
	C213.088135,111.721161 213.256500,113.969475 213.485565,117.028641 
	C215.205719,117.028641 217.188278,117.028641 219.170837,117.028641 
	C219.176498,117.775398 219.182144,118.522156 218.709488,119.666214 
	C216.697876,119.725708 215.164581,119.387901 212.856934,118.879509 
	C212.704498,119.411270 212.334427,120.702263 211.737122,121.990944 
	C211.509888,121.988640 211.055420,121.959923 211.009064,121.625130 
	C210.447083,120.831551 209.931473,120.372765 209.377808,119.880135 
	C208.586304,122.670296 207.909943,125.054527 207.233582,127.438759 
	C207.991302,128.102692 208.749008,128.766617 209.506729,129.430542 
	C210.044525,127.978279 210.582321,126.526016 211.386993,125.012375 
	C211.771759,123.979233 211.889648,123.007492 212.275726,122.169807 
	C213.363800,122.867683 214.183716,123.431488 215.055756,124.133865 
	C215.193649,124.320763 215.279419,124.369095 215.365173,124.417419 
	C215.241806,124.279579 215.118439,124.141739 215.202850,123.735634 
	C216.437103,122.994972 217.463562,122.522568 218.490021,122.050171 
M202.004257,115.278053 
	C202.115189,108.036659 202.509293,100.781097 202.148438,93.563293 
	C202.051834,91.631203 199.650848,89.814308 198.307739,87.944527 
	C196.618408,89.346985 194.155457,90.409981 193.366669,92.207588 
	C188.635269,102.990440 188.113388,114.435677 189.383408,125.938278 
	C189.578171,127.702248 191.946426,130.329269 193.557037,130.525574 
	C195.187302,130.724228 197.960526,128.792068 198.751877,127.100388 
	C200.342010,123.701111 200.924377,119.830437 202.004257,115.278053 
z"/>
<path fill="#040404" opacity="1.000000" stroke="none" 
	d="
M95.551926,114.564201 
	C92.509216,119.118210 89.689713,123.387825 86.870216,127.657440 
	C87.033638,128.069229 87.197067,128.481018 87.360497,128.892807 
	C92.832123,127.531876 98.343513,126.310814 103.763870,124.769592 
	C108.898582,123.309593 109.247414,123.432022 109.203217,128.626083 
	C109.186218,130.624008 109.137581,132.621735 109.093979,134.619354 
	C108.915916,142.777863 108.981827,143.165833 101.148666,144.523376 
	C93.158882,145.908066 84.991936,147.339569 76.950279,147.106201 
	C64.800491,146.753586 60.033230,138.905426 65.561737,128.107498 
	C70.306602,118.840134 76.730484,110.431496 82.427658,101.653351 
	C83.669380,99.740143 84.978302,97.870544 85.704811,94.691833 
	C80.829926,95.627625 75.888184,96.310440 71.100395,97.575775 
	C66.947899,98.673225 65.576286,97.450745 65.945541,93.302628 
	C66.225296,90.159927 66.314713,86.962494 66.073685,83.821266 
	C65.802788,80.290657 67.093651,78.712410 70.648560,78.289375 
	C79.072128,77.286957 87.458748,75.977272 95.869286,74.859428 
	C97.510216,74.641335 99.196091,74.624649 100.853935,74.692802 
	C111.591248,75.134270 115.849426,82.848213 110.317368,92.205322 
	C107.105965,97.637184 103.396599,102.774704 99.909943,108.043770 
	C98.533592,110.123718 97.153503,112.201195 95.551926,114.564201 
z"/>
<path fill="#070707" opacity="1.000000" stroke="none" 
	d="
M162.207565,129.367981 
	C157.740067,142.068344 147.831345,148.777573 135.716675,147.254395 
	C128.206635,146.310165 122.968414,142.143265 119.778275,135.445099 
	C116.876350,129.352112 115.490891,123.066040 116.843803,116.155746 
	C118.295715,108.739761 118.161018,100.918640 120.346092,93.771873 
	C121.970695,88.458275 125.405731,83.136421 129.406235,79.219276 
	C140.210327,68.640327 158.538498,72.813324 163.151459,87.190582 
	C165.568069,94.722382 165.188995,103.151176 165.712250,111.563736 
	C164.963547,111.166611 164.575058,110.380630 164.186584,109.594650 
	C164.963745,110.536217 165.740906,111.477783 166.518066,112.419350 
	C163.605225,113.176689 160.692398,113.934029 157.779556,114.691368 
	C158.245285,115.086082 158.711014,115.480789 159.176758,115.875504 
	C161.138260,116.255562 163.099777,116.635620 165.061295,117.015678 
	C165.139679,117.180656 165.218048,117.345634 164.839722,117.781845 
	C161.919312,118.513008 159.455597,118.972931 156.497986,119.525055 
	C156.426697,119.395996 155.956100,118.544182 155.485504,117.692360 
	C155.170578,117.769867 154.855652,117.847382 154.540726,117.924896 
	C154.904617,120.839233 155.268509,123.753563 155.721863,127.384277 
	C156.647812,126.203430 157.154953,125.556694 157.585648,125.007431 
	C159.155823,126.488815 160.681686,127.928398 162.207565,129.367981 
M140.314774,130.859650 
	C142.166428,128.729126 145.070862,126.855881 145.666534,124.418411 
	C147.265839,117.874123 148.202301,111.115479 148.760803,104.388725 
	C149.099579,100.308517 148.509491,96.083099 147.792145,92.019028 
	C147.529617,90.531677 145.726028,88.274773 144.571106,88.241272 
	C143.008896,88.195938 141.254974,89.793182 139.855713,91.001259 
	C139.045731,91.700584 138.649231,92.977715 138.274002,94.066292 
	C134.795624,104.157616 134.022507,114.592758 135.156845,125.092918 
	C135.378983,127.149284 138.022354,128.944077 140.314774,130.859650 
M153.384735,127.478859 
	C153.384735,127.478859 153.562592,127.578964 153.562592,127.578964 
	C153.562592,127.578964 153.536560,127.382263 153.384735,127.478859 
z"/>
<path fill="#060606" opacity="1.000000" stroke="none" 
	d="
M352.109253,118.996063 
	C352.123138,110.207436 352.123138,101.918259 352.123138,93.335167 
	C348.499115,93.991272 344.437653,94.546982 340.471710,95.500175 
	C337.171570,96.293350 335.973358,95.457115 335.948212,91.936264 
	C335.834747,76.043243 335.759033,76.015900 351.449799,75.617920 
	C362.091553,75.348007 372.739594,75.277954 383.376495,74.890228 
	C386.923035,74.760963 387.961792,75.985954 387.918518,79.471024 
	C387.777863,90.803650 387.897858,90.798958 376.608582,91.301552 
	C374.973175,91.374367 373.341827,91.539612 371.467743,91.680145 
	C371.047913,102.190186 370.603210,112.442734 370.240540,122.698181 
	C369.982605,129.992065 369.910187,137.293625 369.541290,144.580963 
	C369.496460,145.466156 368.172394,146.957779 367.352875,147.020874 
	C362.882233,147.364944 358.369171,147.570984 353.907501,147.273224 
	C353.006287,147.213074 351.565247,144.779739 351.562531,143.438110 
	C351.546295,135.457626 351.879486,127.476440 352.109253,118.996063 
z"/>
<path fill="#050505" opacity="1.000000" stroke="none" 
	d="
M449.126709,116.996750 
	C449.099701,113.153542 449.072662,109.310341 449.598389,105.277634 
	C452.296265,105.733017 452.296265,105.733017 453.472473,99.077179 
	C452.393341,99.368378 451.225830,99.683434 450.058350,99.998489 
	C450.359406,93.865242 450.660461,87.731995 450.961487,81.598740 
	C451.197449,81.549263 451.433411,81.499779 451.669373,81.450302 
	C451.889435,82.191689 452.109497,82.933083 452.479248,84.365868 
	C453.145081,84.734688 453.661255,84.412109 454.177429,84.089523 
	C455.071991,82.280327 455.966553,80.471138 456.966614,78.389809 
	C457.072113,78.117668 457.310242,78.110992 457.582306,78.240662 
	C458.532776,78.115097 459.211151,77.859856 459.889557,77.604614 
	C459.000946,77.212387 458.112335,76.820160 456.917572,76.622803 
	C456.402893,76.940369 456.194397,77.063080 455.985901,77.185783 
	C455.814758,77.167717 455.643616,77.149651 455.105042,76.825226 
	C454.173279,76.552872 453.608948,76.586861 452.789612,76.771751 
	C452.349152,76.990860 452.163757,77.059067 451.978394,77.127274 
	C452.760162,76.287117 453.477203,74.803139 454.334778,74.716904 
	C458.299896,74.318184 462.310913,74.406082 466.292145,74.128021 
	C469.533264,73.901657 470.308136,75.431503 470.052826,78.344200 
	C469.413788,85.634644 468.930817,92.938751 467.970367,100.632385 
	C467.310181,101.137253 467.064819,101.247116 466.819489,101.356972 
	C467.221771,101.571083 467.624054,101.785187 468.026337,101.999298 
	C467.949677,106.721687 467.872986,111.444069 467.350403,116.572815 
	C465.707245,116.669136 464.509979,116.359116 463.236481,116.029350 
	C462.500824,118.624191 461.741272,121.303360 460.698425,124.020248 
	C460.096405,124.368111 459.777649,124.678238 459.458923,124.988373 
	C459.668976,125.171082 459.879028,125.353783 460.089081,125.536484 
	C460.398560,125.030426 460.708008,124.524368 461.295563,124.277634 
	C461.151184,126.365341 461.322662,129.109406 460.190552,129.843765 
	C457.249359,131.751648 457.950012,133.358871 459.606720,135.576874 
	C462.585510,133.635635 464.094757,134.438492 463.991180,138.007797 
	C463.962646,138.991898 463.958862,139.976715 463.742035,141.096817 
	C463.558868,141.601959 463.577393,141.971481 463.595947,142.341019 
	C463.752197,141.915405 463.908478,141.489792 464.333374,141.254120 
	C465.490723,141.986267 466.379364,142.528458 467.268036,143.070663 
	C468.030884,145.701859 467.348267,147.271057 464.305634,147.181198 
	C463.151794,147.147141 461.994873,147.214325 460.839417,147.237350 
	C447.898895,147.495270 447.900360,147.495438 448.388306,134.275314 
	C448.564880,129.490997 448.732330,124.706360 449.304749,119.432739 
	C450.316803,118.564407 450.928101,118.185211 452.309845,117.328117 
	C450.633423,117.153603 449.880066,117.075172 449.126709,116.996750 
M452.997559,111.019310 
	C452.895050,110.722542 452.806610,110.419426 452.678040,110.134422 
	C452.652618,110.078049 452.472839,110.091286 452.364258,110.072418 
	C452.249817,111.368057 452.135406,112.663696 452.020966,113.959328 
	C452.311981,113.975945 452.602997,113.992561 452.893982,114.009178 
	C452.933289,113.232231 452.972595,112.455292 452.997559,111.019310 
M464.973480,109.674812 
	C464.887390,109.057144 464.801331,108.439484 464.715271,107.821815 
	C464.487915,107.877312 464.260590,107.932800 464.033264,107.988297 
	C464.184418,108.504593 464.335602,109.020897 464.973480,109.674812 
M451.795898,122.160332 
	C451.754028,121.736725 451.712189,121.313126 451.670319,120.889534 
	C451.376129,121.123474 450.841675,121.361259 450.845337,121.590401 
	C450.850555,121.916283 451.251251,122.235825 451.795898,122.160332 
M462.574310,112.298332 
	C462.298828,112.009857 462.023346,111.721390 461.747864,111.432915 
	C461.628510,111.547142 461.399078,111.754379 461.405701,111.762192 
	C461.662720,112.066360 461.941315,112.352333 462.574310,112.298332 
M453.426331,92.704369 
	C453.701416,92.992691 453.976532,93.281006 454.251617,93.569328 
	C454.371002,93.455269 454.490387,93.341202 454.609741,93.227127 
	C454.334198,92.938789 454.058624,92.650452 453.426331,92.704369 
M452.391571,85.840538 
	C452.349762,86.393814 452.307953,86.947083 452.266113,87.500359 
	C452.455566,87.519310 452.645020,87.538254 452.834473,87.557198 
	C452.885132,87.009254 452.935791,86.461304 452.391571,85.840538 
M460.823303,108.241203 
	C460.879333,108.410049 460.935364,108.578903 460.991364,108.747742 
	C461.046021,108.577660 461.100647,108.407570 460.823303,108.241203 
M464.404419,113.483482 
	C464.404419,113.483482 464.524567,113.409683 464.404419,113.483482 
z"/>
<path fill="#0A0A0A" opacity="1.000000" stroke="none" 
	d="
M460.981689,123.982521 
	C461.741272,121.303360 462.500824,118.624191 463.236481,116.029350 
	C464.509979,116.359116 465.707245,116.669136 467.240051,116.982269 
	C467.299408,119.423088 467.023193,121.860809 466.576263,124.646973 
	C465.680847,124.973595 464.956085,124.951767 464.231354,124.929947 
	C464.810181,125.925697 465.388977,126.921455 465.967804,127.917206 
	C466.382843,129.024384 466.797913,130.131561 466.811218,131.747177 
	C465.812775,132.653824 465.216064,133.052002 464.278717,133.677521 
	C465.564758,134.209335 466.416901,134.561737 467.269043,134.914124 
	C467.384674,137.407379 467.500305,139.900635 467.441986,142.732269 
	C466.379364,142.528458 465.490723,141.986267 464.304260,141.227051 
	C464.006470,141.010040 463.943726,140.961212 463.943726,140.961212 
	C463.958862,139.976715 463.962646,138.991898 463.991180,138.007797 
	C464.094757,134.438492 462.585510,133.635635 459.606720,135.576874 
	C457.950012,133.358871 457.249359,131.751648 460.190552,129.843765 
	C461.322662,129.109406 461.151184,126.365341 461.286835,124.268501 
	C461.000000,124.000038 460.981689,123.982521 460.981689,123.982521 
z"/>
<path fill="#242424" opacity="1.000000" stroke="none" 
	d="
M162.489380,129.115936 
	C160.681686,127.928398 159.155823,126.488815 157.585648,125.007431 
	C157.154953,125.556694 156.647812,126.203430 155.721863,127.384277 
	C155.268509,123.753563 154.904617,120.839233 154.540726,117.924896 
	C154.855652,117.847382 155.170578,117.769867 155.485504,117.692360 
	C155.956100,118.544182 156.426697,119.395996 156.497986,119.525055 
	C159.455597,118.972931 161.919312,118.513008 164.735962,118.035416 
	C164.316315,121.633118 163.543747,125.248497 162.489380,129.115936 
M162.504333,120.377098 
	C162.504333,120.377098 162.404785,120.546387 162.404785,120.546387 
	C162.404785,120.546387 162.599548,120.524391 162.504333,120.377098 
z"/>
<path fill="#232323" opacity="1.000000" stroke="none" 
	d="
M219.324280,116.711823 
	C217.188278,117.028641 215.205719,117.028641 213.485565,117.028641 
	C213.256500,113.969475 213.088135,111.721161 212.923965,109.528641 
	C214.754181,110.562248 216.922546,111.786827 219.496277,112.998009 
	C219.760315,114.121414 219.619019,115.258209 219.324280,116.711823 
z"/>
<path fill="#242424" opacity="1.000000" stroke="none" 
	d="
M165.225281,116.683197 
	C163.099777,116.635620 161.138260,116.255562 159.176758,115.875504 
	C158.711014,115.480789 158.245285,115.086082 157.779556,114.691368 
	C160.692398,113.934029 163.605225,113.176689 166.518066,112.419350 
	C165.740906,111.477783 164.963745,110.536217 164.186584,109.594650 
	C164.575058,110.380630 164.963547,111.166611 165.625031,111.968094 
	C165.728455,113.439308 165.558868,114.895012 165.225281,116.683197 
z"/>
<path fill="#232323" opacity="1.000000" stroke="none" 
	d="
M211.964340,121.993248 
	C212.334427,120.702263 212.704498,119.411270 212.856934,118.879509 
	C215.164581,119.387901 216.697876,119.725708 218.573059,120.025024 
	C218.847504,120.509811 218.780060,121.033081 218.601318,121.803268 
	C217.463562,122.522568 216.437103,122.994972 215.205322,123.733688 
	C215.000000,124.000000 215.003616,123.995300 215.003616,123.995300 
	C214.183716,123.431488 213.363800,122.867683 212.271286,122.152313 
	C211.998672,122.000755 211.964340,121.993248 211.964340,121.993248 
z"/>
<path fill="#0A0A0A" opacity="1.000000" stroke="none" 
	d="
M449.947632,100.388229 
	C451.225830,99.683434 452.393341,99.368378 453.472473,99.077179 
	C452.296265,105.733017 452.296265,105.733017 449.874756,104.954109 
	C449.677887,103.472717 449.757416,102.125343 449.947632,100.388229 
z"/>
<path fill="#050505" opacity="1.000000" stroke="none" 
	d="
M466.340271,127.917786 
	C465.388977,126.921455 464.810181,125.925697 464.231354,124.929947 
	C464.956085,124.951767 465.680847,124.973595 466.675110,124.994736 
	C466.867340,125.968819 466.790039,126.943596 466.340271,127.917786 
z"/>
<path fill="#161616" opacity="1.000000" stroke="none" 
	d="
M214.353363,133.962921 
	C213.542923,132.498611 211.559494,130.401031 215.686310,130.012726 
	C215.579025,131.257797 215.103317,132.510025 214.353363,133.962921 
z"/>
<path fill="#DCDCDC" opacity="1.000000" stroke="none" 
	d="
M452.015625,77.452766 
	C452.163757,77.059067 452.349152,76.990860 453.076111,76.823982 
	C453.752411,76.865112 453.887177,77.004898 454.021912,77.144684 
	C453.712158,77.929802 453.402374,78.714920 453.092621,79.500046 
	C452.746063,78.926125 452.399475,78.352196 452.015625,77.452766 
z"/>
<path fill="#0A0A0A" opacity="1.000000" stroke="none" 
	d="
M449.037109,117.326157 
	C449.880066,117.075172 450.633423,117.153603 452.309845,117.328117 
	C450.928101,118.185211 450.316803,118.564407 449.399353,118.972954 
	C449.044647,118.553391 448.996094,118.104485 449.037109,117.326157 
z"/>
<path fill="#050505" opacity="1.000000" stroke="none" 
	d="
M467.330017,134.535767 
	C466.416901,134.561737 465.564758,134.209335 464.278717,133.677521 
	C465.216064,133.052002 465.812775,132.653824 466.673645,132.133514 
	C467.088898,132.726730 467.239929,133.442078 467.330017,134.535767 
z"/>
<path fill="#0A0A0A" opacity="1.000000" stroke="none" 
	d="
M468.148529,101.755295 
	C467.624054,101.785187 467.221771,101.571083 466.819489,101.356972 
	C467.064819,101.247116 467.310181,101.137253 467.814758,101.014816 
	C468.139526,101.171913 468.205109,101.341606 468.148529,101.755295 
z"/>
<path fill="#0A0A0A" opacity="1.000000" stroke="none" 
	d="
M454.275513,77.146019 
	C453.887177,77.004898 453.752411,76.865112 453.331116,76.673088 
	C453.608948,76.586861 454.173279,76.552872 454.865112,76.730095 
	C454.838104,77.009987 454.683624,77.078667 454.275513,77.146019 
z"/>
<path fill="#DCDCDC" opacity="1.000000" stroke="none" 
	d="
M456.082489,77.371613 
	C456.194397,77.063080 456.402893,76.940369 457.006958,77.040131 
	C457.371735,77.545387 457.340973,77.828194 457.310242,78.110992 
	C457.310242,78.110992 457.072113,78.117668 456.982666,78.039017 
	C456.599731,77.924271 456.361694,77.789970 456.082489,77.371613 
z"/>
<path fill="#DCDCDC" opacity="1.000000" stroke="none" 
	d="
M453.706238,84.129814 
	C453.661255,84.412109 453.145081,84.734688 452.477112,84.743042 
	C452.628540,84.342575 452.931763,84.256332 453.706238,84.129814 
z"/>
<path fill="#FB6D62" opacity="1.000000" stroke="none" 
	d="
M505.826111,68.397964 
	C498.686768,63.014374 491.547455,57.630772 484.287994,52.156570 
	C488.051300,36.872875 504.108521,24.974737 521.955200,24.536549 
	C539.875427,24.096556 556.506775,35.801155 561.404663,51.999687 
	C553.818909,57.848232 546.350647,63.606236 538.506958,69.086121 
	C536.736511,67.872467 535.367737,66.177048 533.942200,66.127930 
	C526.203613,65.861237 518.446838,65.865059 510.706848,66.109703 
	C509.057465,66.161835 507.451874,67.598930 505.826111,68.397964 
z"/>
<path fill="#F2458C" opacity="1.000000" stroke="none" 
	d="
M533.367432,220.692535 
	C520.149109,223.992889 506.941620,224.731628 493.585419,221.223938 
	C482.980347,218.438782 473.384552,213.875626 465.340698,206.356125 
	C468.879700,205.683182 472.149750,205.088806 475.426849,205.047073 
	C485.549011,204.918137 495.676544,205.118683 505.795166,204.889740 
	C507.602539,204.848831 509.377319,203.368195 511.167145,202.552307 
	C532.364990,206.344467 552.030212,202.117676 571.195557,189.928955 
	C569.964233,193.182602 569.256714,195.052200 568.995239,197.049438 
	C569.441406,197.177078 569.292053,197.278824 569.001587,196.872971 
	C567.818970,197.376343 566.926941,198.285553 566.034912,199.194794 
	C566.034912,199.194794 566.029602,199.025436 565.768982,199.086212 
	C556.999207,205.418396 548.490051,211.689804 539.694031,217.979004 
	C538.923462,218.280884 538.439758,218.564957 537.596680,218.881317 
	C535.947388,219.506577 534.657410,220.099564 533.367432,220.692535 
z"/>
<path fill="#F54D84" opacity="1.000000" stroke="none" 
	d="
M494.995575,179.160828 
	C496.377441,179.100677 497.759338,179.040558 499.645325,179.341095 
	C500.966064,180.129700 501.765900,180.892014 502.601837,180.933853 
	C511.050293,181.356766 519.502563,181.872559 527.957764,181.954712 
	C543.947693,182.110092 559.940186,181.997314 575.931641,181.995987 
	C566.523865,191.489960 554.913757,196.920776 542.018555,199.389297 
	C517.826233,204.020386 495.910919,199.027557 477.243103,182.417267 
	C482.205933,181.713699 486.906006,181.459747 491.574310,180.927307 
	C492.766357,180.791351 493.857880,179.773499 494.995575,179.160828 
z"/>
<path fill="#F76766" opacity="1.000000" stroke="none" 
	d="
M527.280273,89.337746 
	C535.308167,75.226357 546.202576,64.590744 560.959656,56.723591 
	C560.757996,58.539429 560.807495,59.766376 560.470764,60.876060 
	C554.654663,80.039894 543.143066,94.779411 525.833374,104.857491 
	C524.405884,105.688629 521.793945,106.019577 520.475464,105.272133 
	C502.897064,95.306999 491.126282,80.564438 485.162079,61.242950 
	C484.791443,60.042278 484.914185,58.689304 484.748779,56.704098 
	C502.136353,65.807312 513.821960,79.420708 522.614746,97.228455 
	C524.502930,94.043724 525.803406,91.850174 527.280273,89.337746 
z"/>
<path fill="#F7537F" opacity="1.000000" stroke="none" 
	d="
M576.220093,181.777313 
	C559.940186,181.997314 543.947693,182.110092 527.957764,181.954712 
	C519.502563,181.872559 511.050293,181.356766 502.601837,180.933853 
	C501.765900,180.892014 500.966064,180.129700 500.058716,179.297394 
	C503.758118,178.275497 507.545715,177.641815 511.338867,177.043259 
	C527.035095,174.566299 540.417847,167.414948 552.689575,157.064911 
	C555.009766,157.498444 556.764160,157.885162 558.533813,157.976685 
	C566.594177,158.393478 574.658875,158.727310 582.721924,159.090973 
	C580.650818,166.580200 578.579712,174.069427 576.220093,181.777313 
z"/>
<path fill="#F7616D" opacity="1.000000" stroke="none" 
	d="
M510.936920,130.129852 
	C503.376953,119.190521 499.611572,107.102875 499.421509,93.109222 
	C505.365631,97.737778 510.756958,101.763947 515.949951,106.031448 
	C520.468933,109.745117 524.669373,110.029182 529.320801,106.191216 
	C532.894348,103.242714 536.853394,100.761475 541.145142,97.714531 
	C546.364258,107.397110 547.297546,117.838310 547.037903,128.732742 
	C536.120361,129.036621 525.829529,128.971405 515.539795,129.050781 
	C514.002808,129.062653 512.471069,129.753250 510.936920,130.129852 
z"/>
<path fill="#F8626D" opacity="1.000000" stroke="none" 
	d="
M550.413330,129.982254 
	C550.528442,119.583893 549.433044,109.343109 545.248718,99.733673 
	C543.440918,95.581863 544.103943,92.811142 548.504639,90.491570 
	C558.020630,95.793594 565.692932,103.465759 571.547180,112.829742 
	C572.667908,114.622292 571.805664,117.952583 571.233765,120.429230 
	C570.529724,123.477936 569.171326,126.375549 567.456909,129.666306 
	C561.349854,129.990189 555.881592,129.986221 550.413330,129.982254 
z"/>
<path fill="#F85B74" opacity="1.000000" stroke="none" 
	d="
M511.027466,130.453720 
	C512.471069,129.753250 514.002808,129.062653 515.539795,129.050781 
	C525.829529,128.971405 536.120361,129.036621 546.909729,129.092987 
	C547.182617,138.356384 545.475098,147.212051 541.016602,155.951645 
	C528.099365,150.609421 518.898560,141.553482 511.027466,130.453720 
z"/>
<path fill="#F75A76" opacity="1.000000" stroke="none" 
	d="
M582.805542,158.692444 
	C574.658875,158.727310 566.594177,158.393478 558.533813,157.976685 
	C556.764160,157.885162 555.009766,157.498444 552.975586,156.878876 
	C556.476379,151.926468 560.846191,147.702637 563.880798,142.673157 
	C568.203735,135.508392 571.546753,127.752426 575.227722,120.410027 
	C580.362122,125.831894 583.184937,139.274246 582.805542,158.692444 
z"/>
<path fill="#F45778" opacity="1.000000" stroke="none" 
	d="
M514.298462,139.884750 
	C522.281250,146.495026 530.264038,153.105301 539.036987,160.369873 
	C538.575073,164.630951 534.010742,166.254745 529.840820,168.634781 
	C524.916565,171.445374 521.231812,170.904465 518.223267,166.131790 
	C513.127686,158.048462 508.061035,149.946930 503.230713,141.179810 
	C507.085602,140.299316 510.692047,140.092026 514.298462,139.884750 
z"/>
<path fill="#F34988" opacity="1.000000" stroke="none" 
	d="
M510.841278,202.385544 
	C509.377319,203.368195 507.602539,204.848831 505.795166,204.889740 
	C495.676544,205.118683 485.549011,204.918137 475.426849,205.047073 
	C472.149750,205.088806 468.879700,205.683182 465.163635,206.059540 
	C460.873474,201.946548 457.026123,197.798813 453.557068,193.325546 
	C460.893433,193.000015 467.858582,193.179840 474.805664,192.904022 
	C477.290466,192.805374 479.731506,191.605270 482.192535,190.907898 
	C491.633484,194.678177 501.074463,198.448471 510.841278,202.385544 
z"/>
<path fill="#F64F83" opacity="1.000000" stroke="none" 
	d="
M481.977386,190.637665 
	C479.731506,191.605270 477.290466,192.805374 474.805664,192.904022 
	C467.858582,193.179840 460.893433,193.000015 453.466553,193.000000 
	C450.035278,187.574081 447.072876,182.148178 444.502289,176.303497 
	C447.009430,175.589615 449.117218,175.214218 451.241577,175.016312 
	C455.509735,174.618668 459.786926,174.317902 464.060394,173.977142 
	C469.960999,179.440567 475.861633,184.904007 481.977386,190.637665 
z"/>
<path fill="#FA6965" opacity="1.000000" stroke="none" 
	d="
M505.986481,68.680466 
	C507.451874,67.598930 509.057465,66.161835 510.706848,66.109703 
	C518.446838,65.865059 526.203613,65.861237 533.942200,66.127930 
	C535.367737,66.177048 536.736511,67.872467 538.209961,69.275597 
	C533.097534,76.521805 527.906738,83.300415 522.970032,89.747124 
	C517.462341,82.942635 511.804596,75.952805 505.986481,68.680466 
z"/>
<path fill="#F46C5F" opacity="1.000000" stroke="none" 
	d="
M554.114502,34.855110 
	C547.404480,30.294867 548.545044,24.060791 549.985718,18.030569 
	C550.924377,14.101667 552.701599,10.373104 554.224609,6.224015 
	C560.940796,12.621361 565.621582,36.269310 562.530273,45.636806 
	C559.794434,42.108032 557.082214,38.609734 554.114502,34.855110 
z"/>
<path fill="#F56D5F" opacity="1.000000" stroke="none" 
	d="
M495.174805,26.645357 
	C494.016907,29.574930 493.216461,32.280251 491.694580,34.488312 
	C489.082428,38.278172 486.019775,41.757561 483.210754,45.286259 
	C479.605194,38.262161 484.080566,14.139817 490.732422,6.146742 
	C494.714874,12.336028 495.715820,19.092213 495.174805,26.645357 
z"/>
<path fill="#F25A73" opacity="1.000000" stroke="none" 
	d="
M550.300293,130.415314 
	C555.881592,129.986221 561.349854,129.990189 567.265869,129.990463 
	C562.551392,142.371826 554.252869,152.218109 544.142883,159.970459 
	C546.134644,150.374176 548.160950,140.611267 550.300293,130.415314 
z"/>
<path fill="#F3537C" opacity="1.000000" stroke="none" 
	d="
M463.952087,173.655609 
	C459.786926,174.317902 455.509735,174.618668 451.241577,175.016312 
	C449.117218,175.214218 447.009430,175.589615 444.484802,175.941803 
	C442.868622,171.876984 441.661774,167.755081 440.279236,163.305664 
	C440.103607,160.094177 440.103607,157.210190 440.103607,153.211700 
	C448.517273,160.343185 456.180542,166.838623 463.952087,173.655609 
z"/>
<path fill="#F15D6F" opacity="1.000000" stroke="none" 
	d="
M514.148926,139.572845 
	C510.692047,140.092026 507.085602,140.299316 503.196869,140.823517 
	C497.701782,129.891769 496.266754,118.012802 497.232941,105.616203 
	C500.407623,118.083725 505.764587,129.402130 514.148926,139.572845 
z"/>
<path fill="#F66D5F" opacity="1.000000" stroke="none" 
	d="
M498.020142,22.955856 
	C497.226715,17.837780 496.433167,13.175359 495.427673,7.267278 
	C502.500885,10.930390 507.337677,16.054007 511.704224,22.596170 
	C507.190399,24.607965 503.057068,26.450174 498.307892,28.566858 
	C498.192474,26.499481 498.106293,24.955498 498.020142,22.955856 
z"/>
<path fill="#F06B5D" opacity="1.000000" stroke="none" 
	d="
M539.894897,25.244602 
	C537.733704,24.355217 535.927185,23.623863 532.904114,22.400021 
	C538.639893,16.863775 543.693298,11.986193 548.746704,7.108610 
	C549.065125,7.368414 549.383484,7.628218 549.701843,7.888022 
	C548.332825,14.238744 546.963745,20.589464 545.455566,27.585590 
	C543.737366,26.865103 541.993469,26.133869 539.894897,25.244602 
z"/>
<path fill="#F7537F" opacity="1.000000" stroke="none" 
	d="
M494.621643,178.968597 
	C493.857880,179.773499 492.766357,180.791351 491.574310,180.927307 
	C486.906006,181.459747 482.205933,181.713699 477.061890,182.121155 
	C473.416260,179.390961 470.226440,176.610779 466.251251,173.146072 
	C476.398956,175.186859 485.323364,176.981613 494.621643,178.968597 
z"/>
<path fill="#1B152E" opacity="1.000000" stroke="none" 
	d="
M539.980896,217.961212 
	C548.490051,211.689804 556.999207,205.418396 565.853638,199.089539 
	C565.946716,200.326477 566.126465,202.000671 565.374634,202.855652 
	C558.799988,210.332001 550.737610,215.821503 541.247437,219.708527 
	C540.513000,218.965469 540.246948,218.463348 539.980896,217.961212 
z"/>
<path fill="#1C1832" opacity="1.000000" stroke="none" 
	d="
M539.694031,217.979019 
	C540.246948,218.463348 540.513000,218.965469 540.888550,219.730743 
	C539.948242,220.480484 538.898499,220.967041 537.537537,221.163849 
	C537.469543,220.199051 537.712769,219.524033 537.955994,218.849014 
	C538.439758,218.564957 538.923462,218.280884 539.694031,217.979019 
z"/>
<path fill="#1B152E" opacity="1.000000" stroke="none" 
	d="
M537.596680,218.881287 
	C537.712769,219.524033 537.469543,220.199051 537.192017,221.231216 
	C536.645325,221.791336 536.133057,221.994308 535.341187,222.177155 
	C534.724243,221.787094 534.386841,221.417175 533.708496,220.869904 
	C534.657410,220.099564 535.947388,219.506577 537.596680,218.881287 
z"/>
<path fill="#1B152E" opacity="1.000000" stroke="none" 
	d="
M566.328979,199.613312 
	C566.926941,198.285553 567.818970,197.376343 568.916809,196.841644 
	C568.289368,198.154724 567.456238,199.093292 566.328979,199.613312 
z"/>
<path fill="#F7F7F7" opacity="1.000000" stroke="none" 
	d="
M423.985779,99.607635 
	C420.876740,105.606461 415.610779,106.971504 409.577362,107.813301 
	C409.783203,105.037422 409.927704,102.597061 410.151428,100.163986 
	C410.829559,92.789268 414.002258,90.231033 421.602173,90.885887 
	C425.582855,91.228889 426.228668,93.368958 423.985779,99.607635 
z"/>
<path fill="#F8F8F8" opacity="1.000000" stroke="none" 
	d="
M201.963440,115.716179 
	C200.924377,119.830437 200.342010,123.701111 198.751877,127.100388 
	C197.960526,128.792068 195.187302,130.724228 193.557037,130.525574 
	C191.946426,130.329269 189.578171,127.702248 189.383408,125.938278 
	C188.113388,114.435677 188.635269,102.990440 193.366669,92.207588 
	C194.155457,90.409981 196.618408,89.346985 198.307739,87.944534 
	C199.650848,89.814308 202.051834,91.631203 202.148438,93.563293 
	C202.509293,100.781097 202.115189,108.036659 201.963440,115.716179 
z"/>
<path fill="#232323" opacity="1.000000" stroke="none" 
	d="
M211.120102,125.073730 
	C210.582321,126.526016 210.044525,127.978279 209.506729,129.430542 
	C208.749008,128.766617 207.991302,128.102692 207.233582,127.438759 
	C207.909943,125.054527 208.586304,122.670296 209.377808,119.880135 
	C209.931473,120.372765 210.447083,120.831551 210.899780,121.885315 
	C210.931274,123.344772 211.025681,124.209236 211.120102,125.073730 
z"/>
<path fill="#161616" opacity="1.000000" stroke="none" 
	d="
M211.386978,125.012344 
	C211.025681,124.209236 210.931274,123.344772 210.946136,122.220108 
	C211.055420,121.959923 211.509888,121.988640 211.737122,121.990944 
	C211.964340,121.993248 211.998672,122.000755 212.003113,122.018250 
	C211.889648,123.007492 211.771759,123.979233 211.386978,125.012344 
z"/>
<path fill="#232323" opacity="1.000000" stroke="none" 
	d="
M214.997528,124.001953 
	C215.118439,124.141739 215.241806,124.279579 215.365173,124.417419 
	C215.279419,124.369095 215.193649,124.320763 215.055756,124.133865 
	C215.003616,123.995300 215.000000,124.000000 214.997528,124.001953 
z"/>
<path fill="#F7F7F7" opacity="1.000000" stroke="none" 
	d="
M139.931885,130.859589 
	C138.022354,128.944077 135.378983,127.149284 135.156845,125.092918 
	C134.022507,114.592758 134.795624,104.157616 138.274002,94.066292 
	C138.649231,92.977715 139.045731,91.700584 139.855713,91.001259 
	C141.254974,89.793182 143.008896,88.195938 144.571106,88.241272 
	C145.726028,88.274773 147.529617,90.531677 147.792145,92.019028 
	C148.509491,96.083099 149.099579,100.308517 148.760803,104.388725 
	C148.202301,111.115479 147.265839,117.874123 145.666534,124.418411 
	C145.070862,126.855881 142.166428,128.729126 139.931885,130.859589 
z"/>
<path fill="#242424" opacity="1.000000" stroke="none" 
	d="
M153.460648,127.430557 
	C153.536560,127.382263 153.562592,127.578964 153.562592,127.578964 
	C153.562592,127.578964 153.384735,127.478859 153.460648,127.430557 
z"/>
<path fill="#0A0A0A" opacity="1.000000" stroke="none" 
	d="
M457.582306,78.240662 
	C457.340973,77.828194 457.371735,77.545387 457.313110,76.845261 
	C458.112335,76.820160 459.000946,77.212387 459.889557,77.604614 
	C459.211151,77.859856 458.532776,78.115097 457.582306,78.240662 
z"/>
<path fill="#0A0A0A" opacity="1.000000" stroke="none" 
	d="
M453.004730,111.348831 
	C452.972595,112.455292 452.933289,113.232231 452.893982,114.009178 
	C452.602997,113.992561 452.311981,113.975945 452.020966,113.959328 
	C452.135406,112.663696 452.249817,111.368057 452.364258,110.072418 
	C452.472839,110.091286 452.652618,110.078049 452.678040,110.134422 
	C452.806610,110.419426 452.895050,110.722542 453.004730,111.348831 
z"/>
<path fill="#0A0A0A" opacity="1.000000" stroke="none" 
	d="
M464.730103,109.606003 
	C464.335602,109.020897 464.184418,108.504593 464.033264,107.988297 
	C464.260590,107.932800 464.487915,107.877312 464.715271,107.821815 
	C464.801331,108.439484 464.887390,109.057144 464.730103,109.606003 
z"/>
<path fill="#0A0A0A" opacity="1.000000" stroke="none" 
	d="
M451.639465,122.359207 
	C451.251251,122.235825 450.850555,121.916283 450.845337,121.590401 
	C450.841675,121.361259 451.376129,121.123474 451.670319,120.889526 
	C451.712189,121.313126 451.754028,121.736725 451.639465,122.359207 
z"/>
<path fill="#0A0A0A" opacity="1.000000" stroke="none" 
	d="
M462.395691,112.469513 
	C461.941315,112.352333 461.662720,112.066360 461.405701,111.762192 
	C461.399078,111.754379 461.628510,111.547142 461.747864,111.432922 
	C462.023346,111.721390 462.298828,112.009857 462.395691,112.469513 
z"/>
<path fill="#0A0A0A" opacity="1.000000" stroke="none" 
	d="
M453.604706,92.533249 
	C454.058624,92.650452 454.334198,92.938789 454.609741,93.227127 
	C454.490387,93.341202 454.371002,93.455269 454.251617,93.569321 
	C453.976532,93.281006 453.701416,92.992691 453.604706,92.533249 
z"/>
<path fill="#0A0A0A" opacity="1.000000" stroke="none" 
	d="
M461.008728,124.009171 
	C460.708008,124.524368 460.398560,125.030426 460.089081,125.536484 
	C459.879028,125.353783 459.668976,125.171082 459.458923,124.988373 
	C459.777649,124.678238 460.096405,124.368111 460.698425,124.020248 
	C460.981689,123.982521 461.000000,124.000038 461.008728,124.009171 
z"/>
<path fill="#DCDCDC" opacity="1.000000" stroke="none" 
	d="
M452.688995,85.876945 
	C452.935791,86.461304 452.885132,87.009254 452.834473,87.557198 
	C452.645020,87.538254 452.455566,87.519310 452.266113,87.500359 
	C452.307953,86.947083 452.349762,86.393814 452.688995,85.876945 
z"/>
<path fill="#0A0A0A" opacity="1.000000" stroke="none" 
	d="
M464.035583,141.037109 
	C463.908478,141.489792 463.752197,141.915405 463.595947,142.341019 
	C463.577393,141.971481 463.558868,141.601959 463.742035,141.096817 
	C463.943726,140.961212 464.006470,141.010040 464.035583,141.037109 
z"/>
<path fill="#0A0A0A" opacity="1.000000" stroke="none" 
	d="
M460.989288,108.239349 
	C461.100647,108.407570 461.046021,108.577660 460.991394,108.747742 
	C460.935364,108.578903 460.879333,108.410049 460.989288,108.239349 
z"/>
<path fill="#0A0A0A" opacity="1.000000" stroke="none" 
	d="
M464.464478,113.446579 
	C464.524567,113.409683 464.404419,113.483482 464.464478,113.446579 
z"/>
<path fill="#070707" opacity="1.000000" stroke="none" 
	d="
M162.551941,120.450745 
	C162.599548,120.524391 162.404785,120.546387 162.404785,120.546387 
	C162.404785,120.546387 162.504333,120.377098 162.551941,120.450745 
z"/>
</svg>